<svg width="24" height="23" viewBox="0 0 24 23" fill="none" xmlns="http://www.w3.org/2000/svg">
<path d="M17.6391 4.12063C17.9242 3.84682 17.9242 3.4029 17.6391 3.12913L15.4634 1.03929C15.1784 0.765477 14.7162 0.765512 14.4312 1.03928L1.10494 13.8396C0.819916 14.1134 0.819879 14.5573 1.10494 14.8311L3.28064 16.921C3.5657 17.1948 4.02786 17.1948 4.31288 16.921C4.92795 16.3302 5.92912 16.3302 6.54422 16.921C7.15932 17.5118 7.15932 18.4734 6.54422 19.0643C6.2592 19.338 6.25916 19.782 6.54422 20.0558L8.71992 22.1456C9.00498 22.4194 9.46714 22.4194 9.75216 22.1456L23.0784 9.34526C23.3635 9.07145 23.3634 8.62753 23.0784 8.35376L20.9027 6.26391C20.6177 5.9901 20.1555 5.99014 19.8705 6.26391C19.2554 6.85471 18.2542 6.85474 17.6391 6.26391C17.024 5.67309 17.024 4.71146 17.6391 4.12063ZM16.6069 7.25544C17.6136 8.22243 19.1563 8.36729 20.3239 7.69094L21.5301 8.84951L13.1795 16.8705L12.0639 15.7988C11.7788 15.525 11.3167 15.5251 11.0316 15.7988C10.7466 16.0726 10.7466 16.5166 11.0316 16.7903L12.1473 17.862L9.23604 20.6584L8.02987 19.4998C8.73398 18.3783 8.58317 16.8965 7.57645 15.9295C6.56974 14.9625 5.027 14.8176 3.85946 15.494L2.65329 14.3354L5.56453 11.539L6.6802 12.6107C6.96525 12.8845 7.42741 12.8845 7.71243 12.6107C7.99746 12.3369 7.99746 11.893 7.71244 11.6192L6.59677 10.5475L14.9473 2.52656L16.1535 3.68513C15.4493 4.80662 15.6002 6.28845 16.6069 7.25544Z" fill="white" stroke="white" stroke-width="0.3"/>
<path d="M8.31185 13.1867C8.02686 13.4604 8.02689 13.9042 8.31185 14.1779L9.39939 15.2226C9.68438 15.4963 10.1464 15.4963 10.4314 15.2226C10.7163 14.9489 10.7163 14.505 10.4314 14.2313L9.34385 13.1867C9.34385 13.1867 9.34385 13.1867 9.34384 13.1867C9.0589 12.9129 8.59682 12.913 8.31185 13.1867Z" fill="white" stroke="white" stroke-width="0.3"/>
</svg>
